<?xml version="1.0" encoding="utf-8"?>
<!-- Generator: Adobe Illustrator 15.0.0, SVG Export Plug-In . SVG Version: 6.00 Build 0)  -->
<!DOCTYPE svg PUBLIC "-//W3C//DTD SVG 1.1//EN" "http://www.w3.org/Graphics/SVG/1.1/DTD/svg11.dtd">
<svg version="1.1" id="Layer_1" xmlns="http://www.w3.org/2000/svg" xmlns:xlink="http://www.w3.org/1999/xlink" x="0px" y="0px"
	 width="111.94px" height="119.403px" viewBox="0 0 111.94 119.403" enable-background="new 0 0 111.94 119.403"
	 xml:space="preserve">
<g>
	<path fill="#FFFFFF" d="M31.839,55.754c2.972,0,5.516-2.928,6.43-5.739c0,6.194,3.246,13.437,8.975,13.437
		c6.098,0,8.039-4.968,8.47-10.972c0.519,2.652,0.929,7.53,4.779,7.461c3.262-0.057,4.798-5.956,4.86-11.351
		c0.861,3.461,2.807,7.164,8.901,7.164c3.002,0,8.083-4.254,8.083-15.464c0-5.97-2.104-12.623-8.26-12.623
		c-2.274,0-6.415,1.534-8.725,6.43c1.164-5.748,0.003-13.585-9.64-13.585c-5.153,0-9.949,6.015-9.394,14.544
		c-0.278-6.125-5.407-7.279-8.288-7.389c-8.512-0.323-13.899,7.83-13.899,15.249C24.133,50.334,26.454,55.754,31.839,55.754"/>
	<path fill="none" stroke="#13110C" stroke-width="1.403" stroke-linejoin="round" stroke-miterlimit="10" d="M31.839,55.754
		c2.972,0,5.516-2.928,6.43-5.739c0,6.194,3.246,13.437,8.975,13.437c6.098,0,8.039-4.968,8.47-10.972
		c0.519,2.652,0.929,7.53,4.779,7.461c3.262-0.057,4.798-5.956,4.86-11.351c0.861,3.461,2.807,7.164,8.901,7.164
		c3.002,0,8.083-4.254,8.083-15.464c0-5.97-2.104-12.623-8.26-12.623c-2.274,0-6.415,1.534-8.725,6.43
		c1.164-5.748,0.003-13.585-9.64-13.585c-5.153,0-9.949,6.015-9.394,14.544c-0.278-6.125-5.407-7.279-8.288-7.389
		c-8.512-0.323-13.899,7.83-13.899,15.249C24.133,50.334,26.454,55.754,31.839,55.754z"/>
	<path fill="#FFFFFF" d="M47.244,65.006c-3.176,0-6.008-1.832-7.974-5.159c-0.894-1.513-1.579-3.281-2.013-5.149
		c-1.445,1.538-3.327,2.611-5.418,2.611c-3.136,0-5.638-1.536-7.234-4.443c-1.345-2.447-2.026-5.795-2.026-9.95
		c0-4.054,1.443-8.183,3.96-11.329c2.829-3.535,6.738-5.483,11.005-5.483c0.181,0,0.365,0.004,0.547,0.01
		c3.064,0.117,5.531,1.079,7.223,2.731c0.665-2.627,1.875-4.943,3.554-6.711c1.945-2.048,4.376-3.175,6.847-3.175
		c4.03,0,7.095,1.247,9.105,3.707c1.56,1.908,2.196,4.21,2.385,6.328c2.458-2.19,5.213-2.881,6.874-2.881
		c3.387,0,6.087,1.691,7.807,4.891c1.294,2.407,2.007,5.704,2.007,9.286c0,12.399-5.911,17.019-9.638,17.019
		c-3.17,0-5.697-0.923-7.513-2.741c-0.14-0.14-0.275-0.284-0.406-0.435c-0.833,3.988-2.634,7.306-5.814,7.361
		c-0.037,0.002-0.072,0.002-0.109,0.002c-1.339,0-3.149-0.463-4.436-2.571C54.398,62.966,51.476,65.006,47.244,65.006"/>
	<path fill="none" stroke="#4F504D" stroke-width="1.403" stroke-linejoin="round" stroke-miterlimit="10" d="M47.244,65.006
		c-3.176,0-6.008-1.832-7.974-5.159c-0.894-1.513-1.579-3.281-2.013-5.149c-1.445,1.538-3.327,2.611-5.418,2.611
		c-3.136,0-5.638-1.536-7.234-4.443c-1.345-2.447-2.026-5.795-2.026-9.95c0-4.054,1.443-8.183,3.96-11.329
		c2.829-3.535,6.738-5.483,11.005-5.483c0.181,0,0.365,0.004,0.547,0.01c3.064,0.117,5.531,1.079,7.223,2.731
		c0.665-2.627,1.875-4.943,3.554-6.711c1.945-2.048,4.376-3.175,6.847-3.175c4.03,0,7.095,1.247,9.105,3.707
		c1.56,1.908,2.196,4.21,2.385,6.328c2.458-2.19,5.213-2.881,6.874-2.881c3.387,0,6.087,1.691,7.807,4.891
		c1.294,2.407,2.007,5.704,2.007,9.286c0,12.399-5.911,17.019-9.638,17.019c-3.17,0-5.697-0.923-7.513-2.741
		c-0.14-0.14-0.275-0.284-0.406-0.435c-0.833,3.988-2.634,7.306-5.814,7.361c-0.037,0.002-0.072,0.002-0.109,0.002
		c-1.339,0-3.149-0.463-4.436-2.571C54.398,62.966,51.476,65.006,47.244,65.006z"/>
	<path fill="#6A2E5E" d="M31.839,55.754c2.972,0,5.516-2.928,6.43-5.739c0,6.194,3.246,13.437,8.975,13.437
		c6.098,0,8.039-4.968,8.47-10.972c0.519,2.652,0.929,7.53,4.779,7.461c3.262-0.057,4.798-5.956,4.86-11.351
		c0.861,3.461,2.807,7.164,8.901,7.164c3.002,0,8.083-4.254,8.083-15.464c0-5.97-2.104-12.623-8.26-12.623
		c-2.274,0-6.415,1.534-8.725,6.43c1.164-5.748,0.003-13.585-9.64-13.585c-5.153,0-9.949,6.015-9.394,14.544
		c-0.278-6.125-5.407-7.279-8.288-7.389c-8.512-0.323-13.899,7.83-13.899,15.249C24.133,50.334,26.454,55.754,31.839,55.754"/>
</g>
</svg>
